<?xml version="1.0" encoding="utf-8"?>
<!-- Generator: Adobe Illustrator 15.0.0, SVG Export Plug-In . SVG Version: 6.00 Build 0)  -->
<!DOCTYPE svg PUBLIC "-//W3C//DTD SVG 1.1//EN" "http://www.w3.org/Graphics/SVG/1.1/DTD/svg11.dtd">
<svg version="1.1" id="Layer_1" xmlns="http://www.w3.org/2000/svg" xmlns:xlink="http://www.w3.org/1999/xlink" x="0px" y="0px"
	 width="566px" height="494px" viewBox="0 0 566 494" enable-background="new 0 0 566 494" xml:space="preserve">
<g opacity="0.04">
	<path d="M261.667,438.751c5.99,0.795,24.632-1.772,2.201-6.968c-22.433-5.195-34.229-14.67-47.126-19.865
		s-31.295-22.065-38.019-28.911c-6.724-6.847-1.895-17.604,1.711-19.377c3.606-1.772,8.924,1.834,9.413,4.891
		c0.489,3.056,2.934,3.056,4.89,1.405s0-3.361-1.1-3.729c-1.101-0.366-2.384-2.078-0.917-2.444c1.467-0.367,2.078,1.283,2.628,2.444
		c0.55,1.161,4.034,2.629,4.829-0.611c0.794-3.239-2.506-2.934-3.545-3.117s-2.812-0.488-1.711-1.895
		c1.101-1.406,3.851,1.1,4.707,1.65c0.856,0.55,3.484,0.061,2.873-2.873s-4.646-1.711-5.746-1.528
		c-1.1,0.184-2.323-1.956,1.161-1.527c3.484,0.428,2.628-1.956,2.201-3.301s-2.506-0.856-2.506-0.856
		c-3.545,0.734-4.156,3.546-14.792,3.424c-10.636-0.123-12.469,6.968-12.469,10.513s-2.567,1.834-2.567,1.834
		c-12.103-11.003-25.061-39.119-33.985-57.334c-8.924-18.215-17.848-63.324-17.848-63.324c-0.428-4.768,4.523-3.973,12.591,1.467
		c8.068,5.44,12.591-3.484,12.591-3.484s4.951-6.479,11.797-7.579s7.702-0.794,8.129-3.362s-1.65-4.095-4.034-2.323
		s-2.812,1.711-3.606,1.406c-0.794-0.306-1.528-1.589,3.056-3.178c4.584-1.589,1.284-4.768-0.122-5.44s-2.995,0.244-4.34,3.362
		c-1.345,3.117-2.628,2.384-2.628,2.384c-1.284-0.123,0.244-3.606,1.895-4.768c1.65-1.161,0.917-5.256-2.139-4.829
		c-3.056,0.428-2.628,5.318-2.873,6.541c-0.244,1.222-3.423,0.306-1.833-1.467c1.589-1.772,0.733-4.584-1.528-4.645
		c-2.261-0.062-3.362,1.406-3.362,5.684c0,4.279-1.956,8.007-1.956,8.007c-2.201,3.423-5.379,3.667-5.379,3.667
		s-12.714-3.667-17.359-20.048c-4.646-16.381-0.733-21.76-0.733-21.76s7.335-2.689,10.758-19.56s1.467-44.498-3.912-46.209
		c-5.379-1.711-15.892,0.978-30.317,17.359c-14.425,16.381-13.937,29.339-11.002,36.43s2.934,21.271,2.934,21.271
		c0,20.293-14.181,29.095-14.181,29.095c-6.399,5.174-9.536,2.73-13.081-1.426c-3.545-4.156-2.607-8.19-2.078-10.391
		c0.529-2.201-2.974-2.812-4.401-1.589c-1.427,1.223,1.06,4.074-0.489,5.093c-1.549,1.019-2.323-1.141-1.996-3.26
		c0.327-2.118-0.693-3.423-2.2-3.586c-1.507-0.164-4.523,1.386-1.996,4.034c2.525,2.648,2.934,3.178,1.425,4.278
		c-1.509,1.101-1.956-1.1-2.24-1.915c-0.285-0.815-1.141-2.405-2.73-2.161c-1.589,0.245-3.178,0.571-2.282,3.383
		c0.896,2.812,5.868,1.67,4.563,3.585s-2.2,0.164-3.625-1.14c-1.427-1.304-4.605-1.345-4.278,2.24
		c0.325,3.585,3.87,2.975,3.87,2.975c4.157,1.345,8.313,3.667,16.626,10.269c8.312,6.602,12.591,1.589,18.337-0.367
		c5.746-1.956,6.968-8.435,7.09,16.259c0.122,24.694,11.98,57.823,11.98,57.823c5.501,16.015,22.31,37.225,28.056,42.542
		s28.667,24.755,31.417,27.139c2.751,2.384-8.496,6.112-11.125,11.063c-2.628,4.951,3.24,14.608-0.244,17.909
		c-3.484,3.301-1.711,6.784,1.589,6.418c3.301-0.367,0.55-5.317,2.262-5.501s2.139,1.345,1.223,2.934
		c-0.917,1.59,0.122,3.668,2.445,3.729c2.323,0.062,3.362-2.873,1.65-4.278c-1.711-1.406-0.856-2.873,0.306-2.935
		c1.161-0.061,1.222,1.896,1.222,3.606c0,1.712,3.24,2.078,4.523-0.122s-1.65-4.584-3.056-5.134
		c-1.406-0.551-0.978-2.262,0.855-2.629c1.834-0.366,0.367,3.179,3.056,3.179s3.973-3.057-0.244-4.89
		c-4.218-1.834-3.729-2.751-6.846-6.724c-3.117-3.974,3.606-5.257,9.107-7.702c5.501-2.444,14.486,3.912,14.486,3.912
		s25.305,13.203,46.393,23.777C239.051,436.245,255.676,437.956,261.667,438.751z M118.271,158.744
		c2.201,1.711,1.711,5.379,1.711,5.379s-0.978,8.313-5.134,8.313C110.691,172.436,116.07,157.033,118.271,158.744z M94.066,154.833
		c0,0,3.423-5.135,4.156-2.445c0,0-0.245,9.78-5.624,11.247C87.22,165.101,94.066,154.833,94.066,154.833z M179.669,396.713
		C67.46,310.199,98.222,209.11,98.222,209.11C89.663,323.707,174.959,392.981,179.669,396.713c0.072,0.056,0.141,0.113,0.214,0.169
		C179.883,396.882,179.803,396.818,179.669,396.713z"/>
	<path d="M509.461,297.128c-17.18,31.574-23.808,67.329-67.135,92.627c24.914-24.06,47.824-60.499,56.622-84.559
		c11.979-32.763,32.273-97.553-12.958-176.77c0,0-38.875-58.434-72.371-77.016c-33.495-18.582-35.207-9.78-35.207-9.78
		s5.135-1.956,9.047,3.423s3.912,29.339,57.7,65.769c53.789,36.43,57.456,79.95,57.456,79.95s-13.936-12.469-25.427-33.985
		c-11.491-21.515-52.812-50.366-76.527-55.011c-23.716-4.646-36.185-15.893-36.185-15.893s5.379,9.046,8.312,17.359
		c2.934,8.312,9.046,41.564,62.346,58.679c53.3,17.114,67.97,44.498,68.459,62.102c0,0-14.67-22.738-40.586-35.452
		c-25.917-12.713-50.61-27.383-106.111-20.537c0,0,14.426,5.868,22.005,14.669s35.452,34.963,75.793,28.117
		c31.386-5.325,46.634,15.39,50.019,31.299c0.464,4.237,0.527,8.995-0.3,13.798c-2.178-8.756-8.162-20.036-24.291-24.805
		c-19.196-5.676-39.077-0.522-58.317,6.742c-8.192-6.67-31.81-17.585-46.57-22.145c-16.626-5.134-9.291-11.98-9.291-11.98
		c4.89-5.378,13.202-0.733,13.202-0.733s-8.067-10.024-20.537-3.667c-7.713,3.932-5.135,9.079-2.046,12.434
		c-3.677-2.8-7.997-7.178-9.689-13.167c-3.179-11.247-7.824-2.445-4.891,0.733c2.298,2.49,6.114,9.467,13.529,13.554
		c-4.842-1.389-10.023-3.47-12.795-6.464c-6.113-6.601-10.27,0.978-6.847,2.445c2.556,1.095,12.064,3.825,21.501,5.342
		c-1.181,0.004-2.493,0.131-3.876,0.491c2.531,0.021,4.913,0.108,6.592,0.186c0.294,0.215,0.478,0.337,0.478,0.337
		s-13.691-2.2-13.447,8.802c0.244,11.002,12.714,11.98,12.714,11.98c-3.179,0-12.714-12.958,6.846-13.203
		c15.777-0.197,43.476,11.214,53.602,15.636c-8.416,3.23-16.706,6.817-24.751,10.036c-26.895,10.758-19.315-17.848-19.315-17.848
		s-15.647,16.381-7.09,25.917c3.571,3.98,8.117,5.601,12.209,6.158c-6.04,0.212-12.946-0.361-17.222-3.347c0,0-2.689-2.2-3.789-4.89
		c0,0-4.279,10.391,9.046,11.491c8.356,0.689,15.701-1.312,20.018-2.901c-4.578,2.53-12.84,6.521-20.507,7.18
		c-11.369,0.979-3.301,9.78,1.712,5.99c4.196-3.173,15.991-11.208,20.877-13.963c0.233-0.054,0.394-0.096,0.394-0.096
		c-0.344,0.47-0.712,1.031-1.091,1.628c-5.669,2.636-9.544,6.318-9.544,6.318c-9.536,11.124-0.979,13.447-0.979,13.447l0.122-4.768
		c1.017-5.4,5.982-10.438,9.433-13.371c-3.662,6.494-7.081,16.906,2.548,18.75c11.491,2.2,18.581-2.445,18.581-2.445
		c-22.248-2.934-13.691-14.425-13.691-14.425s18.337-27.873,59.901-30.807c29.694-2.096,41.663,14.646,46.081,24.385
		c-0.852,2.706-2.048,5.369-3.673,7.904c-5.425-16.229-20.776-29.194-41.431-24.465c-32.028,7.335-46.453,28.116-46.453,28.116
		c5.623-4.156,36.674-21.026,54.521-7.334c13.405,10.283,11.226,38.906,9.311,52.521c-0.315-10.593-3.389-36.748-25.936-40.053
		c-28.361-4.156-48.41,33.74-46.454,56.479c0,0,11.98-47.433,42.053-22.494c0,0,24.938,25.428,11.247,46.21
		s-32.763,43.275-77.505,62.102s-99.02,8.312-93.642,24.693c0.044,0.134,0.102,0.262,0.149,0.394
		c-3.075,2.749-11.522,8.348-29.488,8.53c0,0-14.67,1.101-25.061-2.322c-10.391-3.423-29.706-5.257-39.608,2.567l-1.222,1.956
		c0,0,6.601-4.646,19.926-4.156c13.325,0.488,34.352,6.601,23.96,12.836c-10.391,6.234-32.762,0.978-32.762,0.978l-5.379-0.978
		c0,0,3.79,3.178,11.736,4.4c3.302,0.508,7.369,1.197,11.726,1.385c-0.749,2.204-3.744,6.917-15.76,7.661
		c0,0,15.558,2.961,19.573-7.647c5.023-0.186,10.248-1.253,15.023-4.21c10.269-6.357,5.746-6.479,11.98-7.946
		c6.234-1.467,12.347,2.078,4.89,6.968c-2.508,1.646-4.571,3.482-6.556,5.337c-4.458-0.07-18.41,0.268-23.517,7.011
		c0,0,9.979-3.576,19.823-3.584c-2.743,2.447-5.748,4.726-9.921,6.396c-9.168,3.667-15.036,5.257-15.036,5.257
		s10.024,2.2,19.315-3.668c9.291-5.867,10.391-9.779,18.582-11.735c0,0,0.245-3.668,5.99-8.068
		c5.746-4.401,6.968-5.746,10.635-6.112c3.667-0.367,10.636-8.068,15.281-4.034c0.022,0.021,0.046,0.032,0.068,0.054
		c0.258,0.278,0.516,0.562,0.791,0.83c0.058,1.702-0.835,3.364-4.894,2.783c-7.702-1.1-11.736,9.413-11.736,9.413
		s2.567-5.379,11.736-6.234c4.872-0.454,7.854-1.469,8.448-3.119c0.655,0.436,1.333,0.85,2.04,1.233
		c-0.096,1.834-0.973,3.702-3.521,5.064c-7.09,3.789-8.557,7.457-27.505,10.146s-18.948,12.591-18.948,12.591
		s2.323-4.278,12.347-7.09c10.024-2.812,19.804-4.034,11.98,1.956s-17.237,10.146-31.173,9.535c0,0-4.034,0.733,0,1.711
		c4.034,0.979,18.704,1.345,28.117-3.056c9.413-4.401,12.225-16.503,23.472-19.682c9.845-2.781,6.389-7.906,14.965-7.828
		c2.031,0.365,4.14,0.573,6.31,0.599c4.376,0.492,5.814,0.196,5.896-0.367c7.102-0.949,14.515-3.772,21.36-8.907
		c21.516-16.136,42.054-25.427,75.794-41.563c2.166-1.035,4.349-2.239,6.542-3.586c15.766-6.893,41.843-19.133,56.048-30.398
		c21.271-16.87,35.94-32.519,44.254-64.303c8.312-31.784,21.271-40.097,41.319-47.188
		C563.25,264.365,527.554,263.877,509.461,297.128z M458.103,158.539c-3.816,3.431-10.254,2.648-10.254,2.648
		c3.679-0.858,6.187-2.486,7.919-4.41c-2.983-2.234-6.213-4.584-9.665-7c-4.866,5.105-13.412,5.298-13.412,5.298
		c5.603-1.196,9.189-3.717,11.479-6.639c-3.343-2.308-6.869-4.657-10.554-7.003c-5.339,7.249-16.085,7.774-16.085,7.774
		c6.989-1.985,11.283-5.417,13.913-9.145c-1.913-1.196-3.86-2.389-5.845-3.569c-1.093-0.65-2.136-1.297-3.193-1.944
		c-5.725,8.447-19.056,7.316-19.056,7.316c8.939-0.688,14.015-4.287,16.854-8.657c-3.021-1.88-5.866-3.735-8.594-5.56
		c-5.276,5.84-16.328,5.422-16.328,5.422c7.495-0.919,11.904-3.537,14.424-6.699c-2.801-1.903-5.438-3.759-7.895-5.542
		c-4.038,3.743-12.642,2.706-12.642,2.706c5.45-0.448,8.68-2.129,10.55-4.245c-13.644-10.085-21.308-17.515-21.308-17.515
		s8.218,6.074,22.677,15.448c2.17-4.542,0.062-9.825,0.062-9.825c2.873,5.265,3.197,8.846,2.182,11.274
		c2.496,1.606,5.174,3.304,8.001,5.07c3.083-6.507,0.331-13.9,0.331-13.9c3.193,6.897,3.247,11.748,1.695,15.161
		c2.683,1.666,5.492,3.388,8.439,5.166c3.085-7.454,1.247-15.681,1.247-15.681c2.418,7.538,2.361,13.011,0.927,16.987
		c1.421,0.85,2.842,1.702,4.316,2.573c1.681,0.993,3.316,1.997,4.919,3.005c3.279-6.896,1.927-13.763,1.927-13.763
		c2.014,6.557,1.702,11.445,0.18,15.109c3.763,2.432,7.297,4.885,10.59,7.311c3.091-6.076,1.944-12.64,1.944-12.64
		c2.258,6.409,1.814,10.94,0.096,14.161c3.387,2.557,6.51,5.066,9.343,7.463c3.01-5.12,1.931-11.11,1.931-11.11
		c2.296,6.39,1.931,10.481,0.39,13.104c11.401,9.93,17.581,17.458,17.581,17.458S469.906,167.517,458.103,158.539z M459.72,194.816
		c-5.873,10.808-21.162,13.805-21.162,13.805c8.659-2.061,16.078-12.09,18.2-15.194c-3.547-1.632-7.492-3.339-11.885-5.076
		c-10.188,18.781-28.075,13.913-28.075,13.913c18.962-2.15,22.916-11.796,23.741-15.58c-4.749-1.78-9.958-3.568-15.593-5.313
		c-9.516,14.383-23.062,12.824-23.062,12.824c13.562-3.53,17.939-10.719,19.266-13.974c-3.952-1.167-8.106-2.306-12.468-3.403
		c-6.938,9.376-19.022,8.086-19.022,8.086c9.701-1.235,13.789-6.275,15.323-8.994c-3.95-0.945-8.062-1.85-12.334-2.708
		c-6.42,5.154-11.547,3.39-11.547,3.39c4.012-0.321,6.33-2.638,7.455-4.196c-6.16-1.162-12.633-2.222-19.435-3.139
		c0,0,64.546-1.467,110.267,36.674C479.389,205.932,472.877,201.117,459.72,194.816z M437.185,256.62
		c-0.038,0.016-0.076,0.03-0.114,0.048C437.07,256.668,437.114,256.648,437.185,256.62c51.497-22.651,58.856,30.733,53.844,33.307
		c-5.014,2.573-0.394-12.492-12.836-29.112C466.193,244.781,439.087,255.818,437.185,256.62z M308.848,453.633
		c-17.983-2.997-17.752-13.604-5.995-13.604c11.759,0,12.221,4.15,12.221,4.15S326.83,456.63,308.848,453.633z"/>
	<path d="M340.549,216.234c-2.434,2.482,0.936,5.976,7.77,0.942c1.736-1.278,3.504-2.042,5.177-2.477
		C348.022,214.651,341.848,214.908,340.549,216.234z"/>
	<path d="M342.961,362.652c-10.758-2.2-18.826-0.733-18.826-0.733c-15.647,2.689-21.516,10.758-41.075,9.046
		c-19.56-1.711-54.277,9.535-64.546,13.692c-10.269,4.156-18.582,3.667-2.689,15.647c15.892,11.979,61.124,32.028,115.646,23.471
		c54.522-8.557,91.196-38.874,110.267-60.39s-0.489-44.987-0.489-44.987c4.646,13.447-8.802,17.115-8.802,17.115
		c12.714,13.691,0.733,20.782,0.733,20.782c1.223-9.047-7.09-18.826-7.09-18.826l-15.159,5.379
		c16.626,8.312,10.024,21.515,10.024,21.515c-2.689-12.713-17.848-21.026-23.96-18.337s-11.247,9.536-11.247,9.536
		c6.357-5.135,31.54-2.445,18.826,18.825c-12.714,21.271-47.677,4.401-66.502,2.935c-18.826-1.467-37.408,9.046-37.408,9.046
		c7.824-7.823,24.938-11.98,28.606-12.225C332.937,373.899,342.961,362.652,342.961,362.652z M254.943,385.635
		c0,0-16.381,2.934-14.425-1.712c1.956-4.645,21.516-7.334,22.249-4.645S261.789,384.412,254.943,385.635z M327.436,400.305
		c-1.822,0-3.301-0.657-3.301-1.467c0-0.811,1.479-1.468,3.301-1.468s3.301,0.657,3.301,1.468
		C330.736,399.647,329.258,400.305,327.436,400.305z M342.105,401.527c-1.958,0-3.546-0.711-3.546-1.59s1.588-1.589,3.546-1.589
		c1.957,0,3.545,0.71,3.545,1.589S344.062,401.527,342.105,401.527z M362.643,388.08c1.822,0,3.301,0.656,3.301,1.467
		c0,0.81-1.479,1.467-3.301,1.467s-3.301-0.657-3.301-1.467C359.342,388.736,360.82,388.08,362.643,388.08z M353.896,394.232
		c-0.153,0.728-1.67,1.023-3.387,0.664c-1.72-0.358-2.987-1.239-2.837-1.967c0.153-0.728,1.67-1.024,3.387-0.665
		C352.778,392.624,354.047,393.504,353.896,394.232z M347.291,382.993c2.762,0.647,4.812,1.97,4.58,2.955
		c-0.229,0.985-2.654,1.263-5.417,0.617c-2.762-0.647-4.812-1.97-4.58-2.955C342.104,382.624,344.529,382.348,347.291,382.993z
		 M341.494,391.503c0,1.215-2.025,2.2-4.523,2.2s-4.523-0.985-4.523-2.2s2.025-2.201,4.523-2.201S341.494,390.288,341.494,391.503z
		 M330.125,380.745c2.632,0,4.768,0.985,4.768,2.2s-2.136,2.2-4.768,2.2s-4.768-0.985-4.768-2.2S327.493,380.745,330.125,380.745z
		 M321.812,388.324c2.768,0,5.012,0.93,5.012,2.078s-2.244,2.078-5.012,2.078c-2.769,0-5.013-0.93-5.013-2.078
		S319.044,388.324,321.812,388.324z"/>
	<path d="M210.689,37.964l22.004,15.648c0,0-38.141,16.87-89.24,22.494c0,0,9.046,9.535,18.826,12.225
		c0,0,27.627-22.494,60.39-11.491c32.762,11.002,72.126,3.178,94.375-7.335c22.248-10.513,38.141-8.557,71.881,18.337
		c0,0-0.489-6.112-2.689-10.269s-7.335-11.98-8.558-19.071s-6.846-17.604-28.85-15.403c-22.005,2.2-48.899-1.711-78.483-15.892
		C240.762,13.026,183.795-1.644,141.009,6.669C98.222,14.981,53.235,37.23,40.766,39.431c-12.469,2.2-22.004,7.09-38.141,7.335
		c0,0,3.912,1.711,8.802,1.711s48.654-1.467,83.373-17.115S181.839,15.959,210.689,37.964z M372.405,59.074
		c1.929,2.061,1.157,3.534,1.157,3.534s-1.157,2.944-4.244,1.178C366.231,62.018,370.476,57.013,372.405,59.074z M337.093,58.257
		c0,0-8.558-1.956-19.56,5.134C317.533,63.392,325.846,48.478,337.093,58.257z M270.707,44.639
		c-4.154,0.643-8.131,1.367-11.902,2.142c-27.206-24.11-57.651-28.866-57.651-28.866C234.814,18.117,262.14,37.746,270.707,44.639z
		 M249.91,48.777c-4.164,1.016-7.98,2.055-11.392,3.062c-24.475-23.942-44.209-29.278-44.209-29.278
		C223.904,28.801,242.176,42.054,249.91,48.777z"/>
	<path d="M352.74,32.096c37.896-5.868,122.736,30.562,122.736,30.562c2.934-1.467-42.053-23.472-102.688-39.364
		s-92.908,2.689-92.908,2.689c17.848,9.535,44.009,13.447,44.009,13.447C334.403,33.808,352.74,32.096,352.74,32.096z"/>
	<path d="M203.599,115.958c-10.561-2.816-19.722-0.847-25.611,1.328c-0.443-0.408-0.876-0.823-1.303-1.245
		c1.847-1.247,4.657-2.714,8.821-3.995c9.535-2.934,16.625-0.733,16.625-0.733s-1.711-2.445-10.269-2.445
		c-6.045,0-13.659,2.801-17.619,4.449c-0.292-0.373-0.581-0.773-0.869-1.185c2.189-1.053,8.372-3.935,14.087-5.708
		c7.09-2.2,9.536-0.978,9.536-0.978c-0.734-2.2-3.667-2.2-3.667-2.2c-6.548-0.345-16.353,3.795-21.584,6.275
		c-0.628-1.125-1.255-2.372-1.887-3.831c-3.413-7.864-10.244-3.026-15.911,4.447c-3.912-2.227-10.739-5.751-16.606-6.892
		c0,0-4.401-1.223-9.535,1.467c0,0,5.841-2.745,24.014,8.428c-0.266,0.402-0.527,0.807-0.783,1.215
		c-3.583-1.895-10.459-5.142-16.14-5.486c-8.068-0.489-11.247,3.667-11.247,3.667s5.135-2.2,11.98-1.222
		c5.4,0.771,11.39,4.423,13.688,5.936c-0.305,0.546-0.598,1.09-0.878,1.63c-3.58-2.583-10.76-6.22-20.877-3.898
		c0,0-3.423,1.467-5.868,4.156c0,0,10.926-6.326,25.133,3.101c-0.462,1.06-0.861,2.075-1.172,3.011c0,0-12.714,16.87,3.667,29.339
		c16.381,12.469,26.161,18.826,32.518,11.247c6.356-7.579,18.337-20.782,8.557-34.962c-3.833-5.56-6.947-8.63-9.663-11.1
		C191.203,115.408,203.599,115.958,203.599,115.958z M169.614,158.989c-15.158-9.046-4.156-16.137-4.156-16.137
		s8.068-6.357,12.714,5.134C178.172,147.986,184.773,168.035,169.614,158.989z"/>
	<path d="M85.998,122.07c-11.002-8.558-23.96,2.934-27.383,18.337s4.89,12.714,4.89,12.714s8.802-7.091,19.804-12.714
		C94.31,134.784,97,130.627,85.998,122.07z M78.418,136.984c0,0-4.645,5.623-8.068,1.222c-3.423-4.401,2.934-10.024,2.934-10.024
		s5.134-5.624,9.535,0.244C87.22,134.295,78.418,136.984,78.418,136.984z"/>
	<path d="M206.533,108.623c17.604,14.914,22.249-9.78,22.249-9.78c5.134-12.958-11.491-9.046-11.491-9.046
		S188.93,93.709,206.533,108.623z"/>
	<path d="M130.255,74.661c12.467-4.113,11.563-12.908-2.205-19.583c-16.136-7.824-40.831-4.645-40.831-4.645
		c-46.454,10.269-49.876,40.341-33.74,57.211c16.136,16.87,24.694-2.445,27.872-7.09c1.083-1.583,3.927-4.592,7.958-7.968
		c1.864,4.251,3.845,11.553,2.556,22.149c0,0,5.201-6.091,1.303-25.205c1.047-0.78,2.162-1.561,3.31-2.337
		c1.261,7.742,2.147,18.013,0.033,26.075c0,0,5.237-11.95,4.321-28.825c1.002-0.59,2.03-1.163,3.081-1.719
		c0.939,13.186-2.023,25.898-2.023,25.898c5.484-7.504,6.026-19.265,5.551-27.645c1.207-0.556,2.436-1.08,3.688-1.564
		c0.884,6.141,1.159,15.926-3.127,26.275c0,0-2.445,5.624,2.2,0.245c3.813-4.414,6.63-18.53,6.441-28.32
		c0.791-0.215,1.582-0.44,2.384-0.615c0.11,5.785-0.438,14.739-3.69,24.779c0,0,1.467,0.489,3.178-2.689
		c1.404-2.607,4.938-12.943,4.413-22.781c0.855-0.119,1.652-0.263,2.439-0.411c0.403,5.405,0.31,15.077-4.162,23.192
		C121.205,99.088,129.941,96.16,130.255,74.661z M131.229,63.147c0,0,3.423-0.978,4.156,2.934c0,0-0.245,3.912-4.156,2.445
		C127.317,67.059,131.229,63.147,131.229,63.147z M63.26,70.482c0,0,4.645-6.602,9.046-0.978c0,0,7.335,10.024-4.156,8.312
		C56.658,76.105,63.26,70.482,63.26,70.482z M73.773,97.132c0,0-4.401,17.604-14.67,2.2C48.834,83.929,65.46,83.685,65.46,83.685
		S78.174,81.24,73.773,97.132z"/>
	<path d="M80.374,317.91c-12.225-41.564-48.41-55.5-48.41-55.5s21.026,20.537,25.183,55.5c4.157,34.963,17.848,59.656,79.705,68.947
		C136.852,386.857,92.599,359.474,80.374,317.91z"/>
</g>
</svg>
